<svg xmlns="http://www.w3.org/2000/svg" width="22" height="21" viewBox="0 0 22 21" fill="none"><rect x="0.5" width="1.62" height="1.62" fill="black"/><rect x="0.5" y="1.62" width="1.62" height="1.62" fill="black"/><rect x="0.5" y="3.23" width="1.62" height="1.62" fill="black"/><rect x="0.5" y="4.85" width="1.62" height="1.62" fill="black"/><rect x="0.5" y="6.46" width="1.62" height="1.62" fill="black"/><rect x="0.5" y="8.08" width="1.62" height="1.62" fill="black"/><rect x="0.5" y="9.69" width="1.62" height="1.62" fill="black"/><rect x="0.5" y="11.31" width="1.62" height="1.62" fill="black"/><rect x="0.5" y="12.92" width="1.62" height="1.62" fill="black"/><rect x="0.5" y="14.54" width="1.62" height="1.62" fill="black"/><rect x="0.5" y="16.15" width="1.62" height="1.62" fill="black"/><rect x="0.5" y="17.77" width="1.62" height="1.62" fill="black"/><rect x="0.5" y="19.38" width="1.62" height="1.62" fill="black"/><rect x="18.27" width="1.62" height="1.62" transform="rotate(90 18.27 0)" fill="black"/><rect x="16.65" width="1.62" height="1.62" transform="rotate(90 16.65 0)" fill="black"/><rect x="15.04" width="1.62" height="1.62" transform="rotate(90 15.04 0)" fill="black"/><rect x="13.42" width="1.62" height="1.62" transform="rotate(90 13.42 0)" fill="black"/><rect x="11.81" width="1.62" height="1.62" transform="rotate(90 11.81 0)" fill="black"/><rect x="10.19" width="1.62" height="1.62" transform="rotate(90 10.19 0)" fill="black"/><rect x="8.58" width="1.62" height="1.62" transform="rotate(90 8.58 0)" fill="black"/><rect x="6.96" width="1.62" height="1.62" transform="rotate(90 6.96 0)" fill="black"/><rect x="5.35" width="1.62" height="1.62" transform="rotate(90 5.35 0)" fill="black"/><rect x="3.73" width="1.62" height="1.62" transform="rotate(90 3.73 0)" fill="black"/><rect x="19.88" y="1.62" width="1.62" height="1.62" transform="rotate(90 19.88 1.62)" fill="black"/><rect x="5.35" y="3.23" width="1.62" height="1.62" transform="rotate(90 5.35 3.23)" fill="black"/><rect x="5.35" y="1.62" width="1.62" height="1.62" transform="rotate(90 5.35 1.62)" fill="black"/><rect x="5.35" y="4.85" width="1.62" height="1.62" transform="rotate(90 5.35 4.85)" fill="black"/><rect x="16.65" y="3.23" width="1.62" height="1.62" transform="rotate(90 16.65 3.23)" fill="black"/><rect x="16.65" y="1.62" width="1.62" height="1.62" transform="rotate(90 16.65 1.62)" fill="black"/><rect x="16.65" y="4.85" width="1.62" height="1.62" transform="rotate(90 16.65 4.85)" fill="black"/><rect x="13.42" y="3.23" width="1.62" height="1.62" transform="rotate(90 13.42 3.23)" fill="black"/><rect x="13.42" y="1.62" width="1.62" height="1.62" transform="rotate(90 13.42 1.62)" fill="black"/><rect x="13.42" y="4.85" width="1.62" height="1.62" transform="rotate(90 13.42 4.85)" fill="black"/><rect x="16.65" y="6.46" width="1.62" height="1.62" transform="rotate(90 16.65 6.46)" fill="black"/><rect x="15.04" y="6.46" width="1.62" height="1.62" transform="rotate(90 15.04 6.46)" fill="black"/><rect x="13.42" y="6.46" width="1.62" height="1.62" transform="rotate(90 13.42 6.46)" fill="black"/><rect x="11.81" y="6.46" width="1.62" height="1.62" transform="rotate(90 11.81 6.46)" fill="black"/><rect x="10.19" y="6.46" width="1.62" height="1.62" transform="rotate(90 10.19 6.46)" fill="black"/><rect x="8.58" y="6.46" width="1.62" height="1.62" transform="rotate(90 8.58 6.46)" fill="black"/><rect x="6.96" y="6.46" width="1.62" height="1.62" transform="rotate(90 6.96 6.46)" fill="black"/><rect x="5.35" y="6.46" width="1.62" height="1.62" transform="rotate(90 5.35 6.46)" fill="black"/><rect x="18.27" y="11.31" width="1.62" height="1.62" transform="rotate(90 18.27 11.31)" fill="black"/><rect x="16.65" y="11.31" width="1.62" height="1.62" transform="rotate(90 16.65 11.31)" fill="black"/><rect x="15.04" y="11.31" width="1.62" height="1.62" transform="rotate(90 15.04 11.31)" fill="black"/><rect x="13.42" y="11.31" width="1.62" height="1.62" transform="rotate(90 13.42 11.31)" fill="black"/><rect x="11.81" y="11.31" width="1.62" height="1.62" transform="rotate(90 11.81 11.31)" fill="black"/><rect x="10.19" y="11.31" width="1.62" height="1.62" transform="rotate(90 10.19 11.31)" fill="black"/><rect x="8.58" y="11.31" width="1.62" height="1.62" transform="rotate(90 8.58 11.31)" fill="black"/><rect x="6.96" y="11.31" width="1.62" height="1.62" transform="rotate(90 6.96 11.31)" fill="black"/><rect x="5.35" y="11.31" width="1.62" height="1.62" transform="rotate(90 5.35 11.31)" fill="black"/><rect x="18.27" y="12.92" width="1.62" height="1.62" transform="rotate(90 18.27 12.92)" fill="black"/><rect x="5.35" y="12.92" width="1.62" height="1.62" transform="rotate(90 5.35 12.92)" fill="black"/><rect x="18.27" y="14.54" width="1.62" height="1.62" transform="rotate(90 18.27 14.54)" fill="black"/><rect x="5.35" y="14.54" width="1.62" height="1.62" transform="rotate(90 5.35 14.54)" fill="black"/><rect x="18.27" y="16.15" width="1.62" height="1.62" transform="rotate(90 18.27 16.15)" fill="black"/><rect x="5.35" y="16.15" width="1.62" height="1.62" transform="rotate(90 5.35 16.15)" fill="black"/><rect x="5.35" y="17.77" width="1.62" height="1.62" transform="rotate(90 5.35 17.77)" fill="black"/><rect x="18.27" y="17.77" width="1.62" height="1.62" transform="rotate(90 18.27 17.77)" fill="black"/><rect x="19.88" y="19.38" width="1.62" height="1.62" transform="rotate(90 19.88 19.38)" fill="black"/><rect x="18.27" y="19.38" width="1.62" height="1.62" transform="rotate(90 18.27 19.38)" fill="black"/><rect x="16.65" y="19.38" width="1.62" height="1.62" transform="rotate(90 16.65 19.38)" fill="black"/><rect x="15.04" y="19.38" width="1.62" height="1.62" transform="rotate(90 15.04 19.38)" fill="black"/><rect x="13.42" y="19.38" width="1.62" height="1.62" transform="rotate(90 13.42 19.38)" fill="black"/><rect x="11.81" y="19.38" width="1.62" height="1.62" transform="rotate(90 11.81 19.38)" fill="black"/><rect x="10.19" y="19.38" width="1.62" height="1.62" transform="rotate(90 10.19 19.38)" fill="black"/><rect x="8.58" y="19.38" width="1.62" height="1.62" transform="rotate(90 8.58 19.38)" fill="black"/><rect x="6.96" y="19.38" width="1.62" height="1.62" transform="rotate(90 6.96 19.38)" fill="black"/><rect x="5.35" y="19.38" width="1.62" height="1.62" transform="rotate(90 5.35 19.38)" fill="black"/><rect x="3.73" y="19.38" width="1.62" height="1.62" transform="rotate(90 3.73 19.38)" fill="black"/><rect x="21.5" y="21" width="1.62" height="1.62" transform="rotate(-180 21.5 21)" fill="black"/><rect x="21.5" y="19.38" width="1.62" height="1.62" transform="rotate(-180 21.5 19.38)" fill="black"/><rect x="21.5" y="17.77" width="1.62" height="1.62" transform="rotate(-180 21.5 17.77)" fill="black"/><rect x="21.5" y="16.15" width="1.62" height="1.62" transform="rotate(-180 21.5 16.15)" fill="black"/><rect x="21.5" y="14.54" width="1.62" height="1.62" transform="rotate(-180 21.5 14.54)" fill="black"/><rect x="21.5" y="12.92" width="1.62" height="1.62" transform="rotate(-180 21.5 12.92)" fill="black"/><rect x="21.5" y="11.31" width="1.62" height="1.62" transform="rotate(-180 21.5 11.31)" fill="black"/><rect x="21.5" y="9.69" width="1.62" height="1.62" transform="rotate(-180 21.5 9.69)" fill="black"/><rect x="21.5" y="8.08" width="1.62" height="1.62" transform="rotate(-180 21.5 8.08)" fill="black"/><rect x="21.5" y="6.46" width="1.62" height="1.62" transform="rotate(-180 21.5 6.46)" fill="black"/><rect x="21.5" y="4.85" width="1.62" height="1.62" transform="rotate(-180 21.5 4.85)" fill="black"/></svg>